<svg id="Layer_1" data-name="Layer 1" xmlns="http://www.w3.org/2000/svg" viewBox="0 0 511.1 448"><defs><style>.cls-1{fill:#fff;}</style></defs><title>comment-regular</title><path class="cls-1" d="M256,32C114.6,32,0,125.1,0,240c0,47.63,19.91,91.25,52.91,126.2C38.06,405.7,7.07,439.08,6.57,439.45A24,24,0,0,0,24,480c61.5,0,109.1-25.75,139.1-46.25A306.48,306.48,0,0,0,256,448c141.4,0,255.1-93.13,255.1-208S397.4,32,256,32Zm.1,368a259.31,259.31,0,0,1-78.38-12.12L155,380.76l-19.5,13.75a214,214,0,0,1-57.5,29,246.41,246.41,0,0,0,19.88-40.25l10.62-28L87.85,333.39C69.82,314.1,48.07,282.2,48.07,240c0-88.25,93.25-160,208-160s208,71.75,208,160S370.8,400,256.1,400Z" transform="translate(0 -32)"/></svg>