<svg id="Layer_1" data-name="Layer 1" xmlns="http://www.w3.org/2000/svg" viewBox="0 0 575.98 448"><defs><style>.cls-1{fill:#fff;}</style></defs><title>eye-regular</title><path class="cls-1" d="M160,256A128,128,0,1,1,288,384,128,128,0,0,1,160,256Zm128,80a80,80,0,0,0,0-160h-2.9a39.84,39.84,0,0,1,2.9,16,64.06,64.06,0,0,1-64,64,39.84,39.84,0,0,1-16-2.9v2c0,45.1,35.8,80.9,80,80.9ZM95.42,112.6C142.5,68.84,207.2,32,288,32s145.5,36.84,192.6,80.6c46.8,43.4,78.1,94.5,92.9,131.1a31.8,31.8,0,0,1,0,24.6c-14.8,35.7-46.1,86.8-92.9,131.1C433.5,443.2,368.8,480,288,480S142.5,443.2,95.42,399.4c-46.8-44.3-78.08-95.4-93-131.1a32,32,0,0,1,0-24.6c14.88-36.6,46.16-87.7,93-131.1ZM288,80c-65.2,0-118.8,29.6-159.9,67.7C89.6,183.5,63,225.1,49.44,256,63,286,89.6,328.5,128.1,364.3,169.2,402.4,222.8,432,288,432s118.8-29.6,159.9-67.7c38.5-35.8,64.2-78.3,78.7-108.3-14.5-30.9-40.2-72.5-78.7-108.3C406.8,109.6,353.2,80,288,80Z" transform="translate(0 -32)"/></svg>