<?xml version="1.0" encoding="utf-8"?>
<!-- Generator: Adobe Illustrator 24.0.2, SVG Export Plug-In . SVG Version: 6.00 Build 0)  -->
<svg version="1.1" id="Layer_1" xmlns="http://www.w3.org/2000/svg" xmlns:xlink="http://www.w3.org/1999/xlink" x="0px" y="0px"
	 viewBox="0 0 30 30" style="enable-background:new 0 0 30 30;" xml:space="preserve">
<style type="text/css">
	.st0{opacity:0.65;fill:#E27866;}
</style>
<path class="st0" d="M1.7,9.6C0.8,9.6,0,10.2,0,11.1s0.6,1.7,1.5,1.7c8,0.5,15.1,7.5,15.6,15.6c0.1,0.9,0.8,1.5,1.5,1.5h0.1
	c0.9-0.1,1.6-0.8,1.5-1.7C19.7,18.6,11.4,10.3,1.7,9.6z M2.1,0C1,0,0,1,0,2.1s1,2.1,2.1,2.1c13,0,23.6,10.6,23.6,23.6
	c0,1.2,1,2.1,2.1,2.1s2.1-1,2.1-2.1C30,12.5,17.5,0,2.1,0z M4.2,21.4c-2.3,0-4.2,1.9-4.2,4.3S1.9,30,4.2,30s4.3-1.9,4.3-4.3
	S6.7,21.4,4.2,21.4z"/>
</svg>
